<svg xmlns="http://www.w3.org/2000/svg" width="384" height="112"><style>line, path, circle,rect,polygon{stroke:black;stroke-width:2;stroke-opacity:1;fill-opacity:1;stroke-linecap:round;stroke-linejoin:miter;}text{font-family:monospace;font-size:14px;}rect.backdrop{stroke:none;fill:white;}.broken{stroke-dasharray:8;}.filled{fill:black;}.bg_filled{fill:white;}.nofill{fill:white;}.end_marked_arrow{marker-end:url(#arrow);}.start_marked_arrow{marker-start:url(#arrow);}.end_marked_diamond{marker-end:url(#diamond);}.start_marked_diamond{marker-start:url(#diamond);}.end_marked_circle{marker-end:url(#circle);}.start_marked_circle{marker-start:url(#circle);}.end_marked_open_circle{marker-end:url(#open_circle);}.start_marked_open_circle{marker-start:url(#open_circle);}.end_marked_big_open_circle{marker-end:url(#big_open_circle);}.start_marked_big_open_circle{marker-start:url(#big_open_circle);}</style><defs><marker id="arrow" viewBox="-2 -2 8 8" refX="4" refY="2" markerWidth="7" markerHeight="7" orient="auto-start-reverse"><polygon points="0,0 0,4 4,2 0,0"></polygon></marker><marker id="diamond" viewBox="-2 -2 8 8" refX="4" refY="2" markerWidth="7" markerHeight="7" orient="auto-start-reverse"><polygon points="0,2 2,0 4,2 2,4 0,2"></polygon></marker><marker id="circle" viewBox="0 0 8 8" refX="4" refY="4" markerWidth="7" markerHeight="7" orient="auto-start-reverse"><circle cx="4" cy="4" r="2" class="filled"></circle></marker><marker id="open_circle" viewBox="0 0 8 8" refX="4" refY="4" markerWidth="7" markerHeight="7" orient="auto-start-reverse"><circle cx="4" cy="4" r="2" class="bg_filled"></circle></marker><marker id="big_open_circle" viewBox="0 0 8 8" refX="4" refY="4" markerWidth="7" markerHeight="7" orient="auto-start-reverse"><circle cx="4" cy="4" r="3" class="bg_filled"></circle></marker></defs><rect class="backdrop" x="0" y="0" width="384" height="112"></rect><rect x="0" y="0" width="8" height="16" class="solid filled" rx="0"></rect><rect x="8" y="0" width="8" height="16" class="solid filled" rx="0"></rect><rect x="16" y="0" width="8" height="16" class="solid filled" rx="0"></rect><rect x="24" y="0" width="8" height="16" class="solid filled" rx="0"></rect><rect x="32" y="0" width="8" height="16" class="solid filled" rx="0"></rect><rect x="40" y="0" width="8" height="16" class="solid filled" rx="0"></rect><rect x="48" y="0" width="8" height="16" class="solid filled" rx="0"></rect><rect x="56" y="0" width="8" height="16" class="solid filled" rx="0"></rect><rect x="80" y="0" width="8" height="16" class="solid filled" rx="0"></rect><rect x="88" y="0" width="8" height="16" class="solid filled" rx="0"></rect><rect x="96" y="0" width="8" height="16" class="solid filled" rx="0"></rect><rect x="104" y="0" width="8" height="16" class="solid filled" rx="0"></rect><rect x="112" y="0" width="8" height="16" class="solid filled" rx="0"></rect><rect x="136" y="0" width="8" height="16" class="solid filled" rx="0"></rect><rect x="144" y="0" width="8" height="16" class="solid filled" rx="0"></rect><rect x="152" y="0" width="8" height="16" class="solid filled" rx="0"></rect><rect x="160" y="0" width="8" height="16" class="solid filled" rx="0"></rect><rect x="168" y="0" width="8" height="16" class="solid filled" rx="0"></rect><rect x="176" y="0" width="8" height="16" class="solid filled" rx="0"></rect><rect x="184" y="0" width="8" height="16" class="solid filled" rx="0"></rect><rect x="24" y="16" width="8" height="16" class="solid filled" rx="0"></rect><rect x="32" y="16" width="8" height="16" class="solid filled" rx="0"></rect><rect x="72" y="16" width="8" height="16" class="solid filled" rx="0"></rect><rect x="80" y="16" width="8" height="16" class="solid filled" rx="0"></rect><rect x="112" y="16" width="8" height="16" class="solid filled" rx="0"></rect><rect x="120" y="16" width="8" height="16" class="solid filled" rx="0"></rect><rect x="136" y="16" width="8" height="16" class="solid filled" rx="0"></rect><rect x="144" y="16" width="8" height="16" class="solid filled" rx="0"></rect><rect x="24" y="32" width="8" height="16" class="solid filled" rx="0"></rect><rect x="32" y="32" width="8" height="16" class="solid filled" rx="0"></rect><rect x="72" y="32" width="8" height="16" class="solid filled" rx="0"></rect><rect x="80" y="32" width="8" height="16" class="solid filled" rx="0"></rect><rect x="88" y="32" width="8" height="16" class="solid filled" rx="0"></rect><rect x="96" y="32" width="8" height="16" class="solid filled" rx="0"></rect><rect x="104" y="32" width="8" height="16" class="solid filled" rx="0"></rect><rect x="112" y="32" width="8" height="16" class="solid filled" rx="0"></rect><rect x="120" y="32" width="8" height="16" class="solid filled" rx="0"></rect><rect x="136" y="32" width="8" height="16" class="solid filled" rx="0"></rect><rect x="144" y="32" width="8" height="16" class="solid filled" rx="0"></rect><rect x="152" y="32" width="8" height="16" class="solid filled" rx="0"></rect><rect x="160" y="32" width="8" height="16" class="solid filled" rx="0"></rect><rect x="168" y="32" width="8" height="16" class="solid filled" rx="0"></rect><rect x="176" y="32" width="8" height="16" class="solid filled" rx="0"></rect><rect x="184" y="32" width="8" height="16" class="solid filled" rx="0"></rect><rect x="24" y="48" width="8" height="16" class="solid filled" rx="0"></rect><rect x="32" y="48" width="8" height="16" class="solid filled" rx="0"></rect><rect x="72" y="48" width="8" height="16" class="solid filled" rx="0"></rect><rect x="80" y="48" width="8" height="16" class="solid filled" rx="0"></rect><rect x="112" y="48" width="8" height="16" class="solid filled" rx="0"></rect><rect x="120" y="48" width="8" height="16" class="solid filled" rx="0"></rect><rect x="176" y="48" width="8" height="16" class="solid filled" rx="0"></rect><rect x="184" y="48" width="8" height="16" class="solid filled" rx="0"></rect><rect x="24" y="64" width="8" height="16" class="solid filled" rx="0"></rect><rect x="32" y="64" width="8" height="16" class="solid filled" rx="0"></rect><rect x="72" y="64" width="8" height="16" class="solid filled" rx="0"></rect><rect x="80" y="64" width="8" height="16" class="solid filled" rx="0"></rect><rect x="112" y="64" width="8" height="16" class="solid filled" rx="0"></rect><rect x="120" y="64" width="8" height="16" class="solid filled" rx="0"></rect><rect x="136" y="64" width="8" height="16" class="solid filled" rx="0"></rect><rect x="144" y="64" width="8" height="16" class="solid filled" rx="0"></rect><rect x="152" y="64" width="8" height="16" class="solid filled" rx="0"></rect><rect x="160" y="64" width="8" height="16" class="solid filled" rx="0"></rect><rect x="168" y="64" width="8" height="16" class="solid filled" rx="0"></rect><rect x="176" y="64" width="8" height="16" class="solid filled" rx="0"></rect><rect x="184" y="64" width="8" height="16" class="solid filled" rx="0"></rect><rect x="232" y="0" width="8" height="16" class="solid filled" rx="0"></rect><rect x="240" y="0" width="8" height="16" class="solid filled" rx="0"></rect><rect x="248" y="0" width="8" height="16" class="solid filled" rx="0"></rect><rect x="256" y="0" width="8" height="16" class="solid filled" rx="0"></rect><rect x="264" y="0" width="8" height="16" class="solid filled" rx="0"></rect><rect x="288" y="0" width="8" height="16" class="solid filled" rx="0"></rect><rect x="296" y="0" width="8" height="16" class="solid filled" rx="0"></rect><rect x="352" y="0" width="8" height="16" class="solid filled" rx="0"></rect><rect x="360" y="0" width="8" height="16" class="solid filled" rx="0"></rect><rect x="224" y="16" width="8" height="16" class="solid filled" rx="0"></rect><rect x="232" y="16" width="8" height="16" class="solid filled" rx="0"></rect><rect x="264" y="16" width="8" height="16" class="solid filled" rx="0"></rect><rect x="272" y="16" width="8" height="16" class="solid filled" rx="0"></rect><rect x="288" y="16" width="8" height="16" class="solid filled" rx="0"></rect><rect x="296" y="16" width="8" height="16" class="solid filled" rx="0"></rect><rect x="352" y="16" width="8" height="16" class="solid filled" rx="0"></rect><rect x="360" y="16" width="8" height="16" class="solid filled" rx="0"></rect><rect x="224" y="32" width="8" height="16" class="solid filled" rx="0"></rect><rect x="232" y="32" width="8" height="16" class="solid filled" rx="0"></rect><rect x="240" y="32" width="8" height="16" class="solid filled" rx="0"></rect><rect x="248" y="32" width="8" height="16" class="solid filled" rx="0"></rect><rect x="256" y="32" width="8" height="16" class="solid filled" rx="0"></rect><rect x="264" y="32" width="8" height="16" class="solid filled" rx="0"></rect><rect x="272" y="32" width="8" height="16" class="solid filled" rx="0"></rect><rect x="288" y="32" width="8" height="16" class="solid filled" rx="0"></rect><rect x="296" y="32" width="8" height="16" class="solid filled" rx="0"></rect><rect x="352" y="32" width="8" height="16" class="solid filled" rx="0"></rect><rect x="360" y="32" width="8" height="16" class="solid filled" rx="0"></rect><rect x="224" y="48" width="8" height="16" class="solid filled" rx="0"></rect><rect x="232" y="48" width="8" height="16" class="solid filled" rx="0"></rect><rect x="264" y="48" width="8" height="16" class="solid filled" rx="0"></rect><rect x="272" y="48" width="8" height="16" class="solid filled" rx="0"></rect><rect x="288" y="48" width="8" height="16" class="solid filled" rx="0"></rect><rect x="296" y="48" width="8" height="16" class="solid filled" rx="0"></rect><rect x="352" y="48" width="8" height="16" class="solid filled" rx="0"></rect><rect x="360" y="48" width="8" height="16" class="solid filled" rx="0"></rect><rect x="224" y="64" width="8" height="16" class="solid filled" rx="0"></rect><rect x="232" y="64" width="8" height="16" class="solid filled" rx="0"></rect><rect x="264" y="64" width="8" height="16" class="solid filled" rx="0"></rect><rect x="272" y="64" width="8" height="16" class="solid filled" rx="0"></rect><rect x="288" y="64" width="8" height="16" class="solid filled" rx="0"></rect><rect x="296" y="64" width="8" height="16" class="solid filled" rx="0"></rect><rect x="304" y="64" width="8" height="16" class="solid filled" rx="0"></rect><rect x="312" y="64" width="8" height="16" class="solid filled" rx="0"></rect><rect x="320" y="64" width="8" height="16" class="solid filled" rx="0"></rect><rect x="328" y="64" width="8" height="16" class="solid filled" rx="0"></rect><rect x="336" y="64" width="8" height="16" class="solid filled" rx="0"></rect><rect x="352" y="64" width="8" height="16" class="solid filled" rx="0"></rect><rect x="360" y="64" width="8" height="16" class="solid filled" rx="0"></rect><g><line x1="64" y1="8" x2="70" y2="8" class="solid"></line><line x1="70" y1="8" x2="70" y2="28" class="solid"></line><line x1="46" y1="28" x2="70" y2="28" class="solid"></line><line x1="46" y1="28" x2="46" y2="92" class="solid"></line><line x1="26" y1="80" x2="26" y2="92" class="solid"></line><line x1="26" y1="92" x2="46" y2="92" class="solid"></line></g><g><line x1="64" y1="12" x2="66" y2="12" class="solid"></line><line x1="66" y1="12" x2="66" y2="24" class="solid"></line><line x1="42" y1="24" x2="66" y2="24" class="solid"></line><line x1="42" y1="24" x2="42" y2="88" class="solid"></line><line x1="30" y1="80" x2="30" y2="88" class="solid"></line><line x1="30" y1="88" x2="42" y2="88" class="solid"></line></g><g><line x1="120" y1="8" x2="126" y2="8" class="solid"></line><line x1="126" y1="8" x2="126" y2="16" class="solid"></line></g><g><line x1="120" y1="12" x2="122" y2="12" class="solid"></line><line x1="122" y1="12" x2="122" y2="16" class="solid"></line></g><g><line x1="192" y1="8" x2="198" y2="8" class="solid"></line><line x1="198" y1="8" x2="198" y2="28" class="solid"></line><line x1="158" y1="28" x2="198" y2="28" class="solid"></line><line x1="158" y1="28" x2="158" y2="32" class="solid"></line></g><g><line x1="192" y1="12" x2="194" y2="12" class="solid"></line><line x1="194" y1="12" x2="194" y2="24" class="solid"></line><line x1="154" y1="24" x2="194" y2="24" class="solid"></line><line x1="154" y1="24" x2="154" y2="32" class="solid"></line></g><g><line x1="2" y1="16" x2="2" y2="28" class="solid"></line><line x1="2" y1="28" x2="24" y2="28" class="solid"></line></g><g><line x1="6" y1="16" x2="6" y2="24" class="solid"></line><line x1="6" y1="24" x2="24" y2="24" class="solid"></line></g><g><line x1="90" y1="24" x2="112" y2="24" class="solid"></line><line x1="90" y1="24" x2="90" y2="32" class="solid"></line></g><g><line x1="94" y1="28" x2="112" y2="28" class="solid"></line><line x1="94" y1="28" x2="94" y2="32" class="solid"></line></g><g><line x1="128" y1="24" x2="134" y2="24" class="solid"></line><line x1="134" y1="24" x2="134" y2="92" class="solid"></line><line x1="114" y1="80" x2="114" y2="92" class="solid"></line><line x1="114" y1="92" x2="134" y2="92" class="solid"></line></g><g><line x1="128" y1="28" x2="130" y2="28" class="solid"></line><line x1="130" y1="28" x2="130" y2="88" class="solid"></line><line x1="118" y1="80" x2="118" y2="88" class="solid"></line><line x1="118" y1="88" x2="130" y2="88" class="solid"></line></g><g><line x1="192" y1="40" x2="198" y2="40" class="solid"></line><line x1="198" y1="40" x2="198" y2="92" class="solid"></line><line x1="138" y1="80" x2="138" y2="92" class="solid"></line><line x1="138" y1="92" x2="198" y2="92" class="solid"></line></g><g><line x1="192" y1="44" x2="194" y2="44" class="solid"></line><line x1="194" y1="44" x2="194" y2="88" class="solid"></line><line x1="142" y1="80" x2="142" y2="88" class="solid"></line><line x1="142" y1="88" x2="194" y2="88" class="solid"></line></g><g><line x1="90" y1="56" x2="112" y2="56" class="solid"></line><line x1="90" y1="56" x2="90" y2="88" class="solid"></line><line x1="78" y1="80" x2="78" y2="88" class="solid"></line><line x1="78" y1="88" x2="90" y2="88" class="solid"></line></g><g><line x1="94" y1="60" x2="112" y2="60" class="solid"></line><line x1="94" y1="60" x2="94" y2="92" class="solid"></line><line x1="74" y1="80" x2="74" y2="92" class="solid"></line><line x1="74" y1="92" x2="94" y2="92" class="solid"></line></g><g><line x1="138" y1="48" x2="138" y2="60" class="solid"></line><line x1="138" y1="60" x2="176" y2="60" class="solid"></line></g><g><line x1="142" y1="48" x2="142" y2="56" class="solid"></line><line x1="142" y1="56" x2="176" y2="56" class="solid"></line></g><g><line x1="272" y1="8" x2="278" y2="8" class="solid"></line><line x1="278" y1="8" x2="278" y2="16" class="solid"></line></g><g><line x1="272" y1="12" x2="274" y2="12" class="solid"></line><line x1="274" y1="12" x2="274" y2="16" class="solid"></line></g><g><line x1="304" y1="8" x2="310" y2="8" class="solid"></line><line x1="310" y1="8" x2="310" y2="64" class="solid"></line></g><g><line x1="304" y1="12" x2="306" y2="12" class="solid"></line><line x1="306" y1="12" x2="306" y2="64" class="solid"></line></g><g><line x1="368" y1="8" x2="374" y2="8" class="solid"></line><line x1="374" y1="8" x2="374" y2="92" class="solid"></line><line x1="354" y1="80" x2="354" y2="92" class="solid"></line><line x1="354" y1="92" x2="374" y2="92" class="solid"></line></g><g><line x1="368" y1="12" x2="370" y2="12" class="solid"></line><line x1="370" y1="12" x2="370" y2="88" class="solid"></line><line x1="358" y1="80" x2="358" y2="88" class="solid"></line><line x1="358" y1="88" x2="370" y2="88" class="solid"></line></g><g><line x1="242" y1="24" x2="264" y2="24" class="solid"></line><line x1="242" y1="24" x2="242" y2="32" class="solid"></line></g><g><line x1="246" y1="28" x2="264" y2="28" class="solid"></line><line x1="246" y1="28" x2="246" y2="32" class="solid"></line></g><g><line x1="280" y1="24" x2="286" y2="24" class="solid"></line><line x1="286" y1="24" x2="286" y2="92" class="solid"></line><line x1="266" y1="80" x2="266" y2="92" class="solid"></line><line x1="266" y1="92" x2="286" y2="92" class="solid"></line></g><g><line x1="280" y1="28" x2="282" y2="28" class="solid"></line><line x1="282" y1="28" x2="282" y2="88" class="solid"></line><line x1="270" y1="80" x2="270" y2="88" class="solid"></line><line x1="270" y1="88" x2="282" y2="88" class="solid"></line></g><g><line x1="242" y1="56" x2="264" y2="56" class="solid"></line><line x1="242" y1="56" x2="242" y2="88" class="solid"></line><line x1="230" y1="80" x2="230" y2="88" class="solid"></line><line x1="230" y1="88" x2="242" y2="88" class="solid"></line></g><g><line x1="246" y1="60" x2="264" y2="60" class="solid"></line><line x1="246" y1="60" x2="246" y2="92" class="solid"></line><line x1="226" y1="80" x2="226" y2="92" class="solid"></line><line x1="226" y1="92" x2="246" y2="92" class="solid"></line></g><g><line x1="344" y1="72" x2="350" y2="72" class="solid"></line><line x1="350" y1="72" x2="350" y2="92" class="solid"></line><line x1="290" y1="80" x2="290" y2="92" class="solid"></line><line x1="290" y1="92" x2="350" y2="92" class="solid"></line></g><g><line x1="344" y1="76" x2="346" y2="76" class="solid"></line><line x1="346" y1="76" x2="346" y2="88" class="solid"></line><line x1="294" y1="80" x2="294" y2="88" class="solid"></line><line x1="294" y1="88" x2="346" y2="88" class="solid"></line></g></svg>