<?xml version="1.0" encoding="utf-8"?>
<!-- Generator: Adobe Illustrator 20.0.0, SVG Export Plug-In . SVG Version: 6.00 Build 0)  -->
<svg version="1.1" id="Layer_1" xmlns="http://www.w3.org/2000/svg" xmlns:xlink="http://www.w3.org/1999/xlink" x="0px" y="0px"
	 viewBox="0 0 44.2 44.2" style="enable-background:new 0 0 44.2 44.2;" xml:space="preserve">
<style type="text/css">
	.st0{fill:#8000FF;}
	.st1{fill:#FCFAFF;}
</style>
<g id="Layer_2">
	<g id="XMLID_1_">
		<g>
			<path class="st0" d="M44.2,3.9v36.4c0,2.1-1.7,3.9-3.9,3.9H3.9c-2.1,0-3.9-1.7-3.9-3.9V3.9C0,1.8,1.7,0,3.9,0h36.4
				C42.4,0,44.2,1.8,44.2,3.9z M33.1,35.4c2.1-2,3.3-4.9,3.1-7.8c-0.4-2.8-2.3-4.8-4.2-6.8c1.5-2.7,2.5-5.6,1.2-8.6
				c-1.1-2.6-3.4-4.6-6-5.6c-3.8-1.3-7.9-0.3-10.6,2.5c-2.2,2.4-5,3.6-7.8,3.6H8.1c-1.4,0-2.6,1-2.7,2.3c-0.1,1.6,1,2.9,2.6,2.9h0.8
				c4.2,0,8.3-1.9,11.5-5.2c1.5-1.5,3.7-1.9,5.8-1c1.5,0.7,2.5,2.2,2.6,3.9c0.2,1.9-1,3.5-2.7,4.1c0,1.1-0.2,2.2,0.5,3.2
				c0.7,1.1,2,1.9,2.9,2.9c1,1,1.7,2.4,1.6,3.8s-1.2,2.6-2.4,3.3c-2.2,1.1-4.7,0.8-7,0.8V19.8h-1.4c-2,0-3.6,1.6-3.6,3.6
				c0,2.5-0.1,8-0.1,11.3c0,0.1,0,0.1,0,0.2c0,1.8,1.4,3.5,3.2,3.7C24,39.1,29.7,38.5,33.1,35.4z"/>
		</g>
	</g>
</g>
<path class="st1" d="M32,21c1.5-2.7,2.5-5.6,1.2-8.6c-1.1-2.6-3.4-4.6-6-5.6c-3.8-1.3-7.9-0.3-10.6,2.5c-2.2,2.4-5,3.6-7.8,3.6H8.1
	c-1.4,0-2.6,1-2.7,2.3c-0.1,1.6,1,2.9,2.6,2.9h0.8c4.2,0,8.3-1.9,11.5-5.2c1.5-1.5,3.7-1.9,5.8-1c1.5,0.7,2.5,2.2,2.6,3.9
	c0.2,1.9-1,3.5-2.7,4.1c0,1.1-0.2,2.2,0.5,3.2c0.7,1.1,2,1.9,2.9,2.9c1,1,1.7,2.4,1.6,3.8c-0.1,1.4-1.2,2.6-2.4,3.3
	c-2.2,1.1-4.7,0.8-7,0.8V20h-1.4c-2,0-3.6,1.6-3.6,3.6c0,2.5-0.1,8-0.1,11.3c-0.1,1.9,1.3,3.7,3.2,3.9c4.3,0.5,10-0.1,13.4-3.2
	c2.1-2,3.3-4.9,3.1-7.8C35.8,25,33.9,23,32,21z"/>
</svg>
